<?xml version="1.0" encoding="utf-8"?>
<!-- Generator: Adobe Illustrator 22.0.1, SVG Export Plug-In . SVG Version: 6.00 Build 0)  -->
<svg version="1.1" id="Layer_1" xmlns="http://www.w3.org/2000/svg" xmlns:xlink="http://www.w3.org/1999/xlink" x="0px" y="0px"
	 viewBox="0 0 202.1 98.2" style="enable-background:new 0 0 202.1 98.2;" xml:space="preserve">
<style type="text/css">
	.st0{fill:#666667;}
	.st1{fill:#001A57;}
	.st2{fill:#262626;}
	.st3{fill:#0272A3;}
	.st4{fill:#14477E;}
	.st5{fill:#FFFFFF;}
	.st6{font-family:'OpenSans-SemiBold';}
	.st7{font-size:14.1804px;}
	.st8{font-family:'OpenSans-Regular';}
	.st9{letter-spacing:1;}
	.st10{font-family:'OpenSans-Italic';}
	.st11{font-size:10.1562px;}
</style>
<g>
	<g>
		<path class="st5" d="M91.3,40c-0.6,0-1.1,0-1.8,0.1c-0.6,0-1.2,0.1-1.6,0.1c-0.1,0-0.2,0-0.4,0c-0.2,0-0.3-0.1-0.3-0.3
			c0-0.2,0.1-0.3,0.3-0.5c0.2-0.2,0.6-0.3,1.1-0.4c0.2,0,0.4-0.1,0.6-0.1c0.2-0.1,0.4-0.2,0.5-0.3c0.2-0.2,0.3-0.4,0.4-0.7
			c0.1-0.3,0.2-0.7,0.2-1.3V18.7c0-0.2-0.1-0.3-0.3-0.4c-0.2-0.1-0.4-0.2-0.7-0.2c-0.3,0-0.5-0.1-0.8-0.1c-0.3,0-0.6,0-0.8-0.1
			c-0.4-0.1-0.7-0.1-0.9-0.1c-0.2,0-0.2-0.2-0.2-0.4c0-0.2,0.1-0.3,0.2-0.4c0.1-0.1,0.2-0.2,0.4-0.2c0.2,0,0.3-0.1,0.5-0.1
			c0.2,0,0.3,0,0.4,0h3.4c0.9,0,1.9,0,2.8-0.1c0.9-0.1,2-0.1,3.2-0.1c2,0,3.9,0.3,5.6,0.8c1.7,0.5,3.3,1.3,4.6,2.3
			c1.3,1.1,2.3,2.4,3.1,4.1c0.8,1.7,1.1,3.6,1.1,5.9c0,1.4-0.3,2.7-0.9,4c-0.6,1.3-1.5,2.4-2.5,3.3c-1.1,0.9-2.3,1.7-3.7,2.2
			c-1.4,0.5-2.9,0.8-4.6,0.8H91.3 M93.5,35.3c0,0.7,0.1,1.2,0.4,1.7c0.3,0.5,0.6,0.9,1.1,1.2s1,0.5,1.6,0.7c0.6,0.2,1.2,0.2,1.8,0.2
			c0.5,0,1.1-0.1,1.8-0.2c0.7-0.2,1.4-0.4,2.1-0.7c0.7-0.3,1.5-0.7,2.2-1.3c0.7-0.5,1.4-1.2,2-1.9c0.6-0.7,1-1.6,1.4-2.6
			c0.4-1,0.5-2.1,0.5-3.4c0-1.3-0.2-2.5-0.5-3.5c-0.4-1.1-0.8-2-1.4-2.8c-0.6-0.8-1.3-1.5-2.1-2.2c-0.8-0.6-1.6-1.1-2.5-1.5
			c-0.9-0.4-1.7-0.7-2.6-0.9c-0.9-0.2-1.7-0.3-2.5-0.3c-0.8,0-1.4,0-1.8,0.1c-0.4,0.1-0.7,0.2-0.9,0.3c-0.2,0.1-0.3,0.2-0.4,0.4
			c0,0.2-0.1,0.3-0.1,0.4V35.3z"/>
		<path class="st5" d="M119.6,40.7c-0.9,0-1.6-0.1-2.2-0.4c-0.6-0.3-1.1-0.6-1.4-1.1c-0.3-0.5-0.6-1-0.7-1.7
			c-0.1-0.7-0.2-1.4-0.2-2.2c0-0.6,0-1.2,0-1.9c0-0.7,0-1.4,0-2.1c0-0.7,0-1.4,0-2.1c0-0.7,0-1.3,0-1.9c0-0.3-0.1-0.5-0.4-0.5
			c-0.3-0.1-0.5-0.1-0.7-0.2c-0.5-0.1-0.8-0.2-0.9-0.3c-0.2-0.1-0.2-0.2-0.2-0.3c0-0.2,0.1-0.3,0.3-0.3c0.2,0,0.4,0,0.7,0
			c0.3,0,0.5,0,0.8,0c0.3,0,0.5,0,0.8,0c0.3,0,0.6,0,0.8,0c0.3,0,0.6,0,0.8,0c0.3,0,0.4,0.1,0.5,0.2c0.1,0.1,0.1,0.3,0.1,0.6
			c0,1.7,0,3.4,0,5c0,1.7,0,3.4,0,5c0,0.8,0.3,1.4,0.8,1.8c0.5,0.4,1.3,0.6,2.2,0.6c1.1,0,1.9-0.1,2.5-0.3c0.6-0.2,1-0.5,1.3-0.8
			c0.3-0.3,0.5-0.7,0.6-1.1c0.1-0.4,0.1-0.8,0.1-1.2c0-1.4,0-2.7,0-4c0-1.3,0-2.7,0-4c0-0.1,0-0.2-0.1-0.3c0-0.1-0.1-0.1-0.3-0.2
			c-0.1-0.1-0.3-0.1-0.6-0.2c-0.3-0.1-0.6-0.2-1.1-0.3c-0.2-0.1-0.4-0.1-0.7-0.2c-0.3-0.1-0.4-0.2-0.4-0.4c0-0.1,0.1-0.2,0.3-0.2
			c0.2,0,0.4-0.1,0.6-0.1c0.3,0,0.6,0,1,0c0.3,0,0.6,0,1,0c0.4,0,0.8,0,1.1,0c0.4,0,0.7,0,1.1,0c0.1,0,0.3,0,0.5,0.1
			c0.2,0.1,0.3,0.3,0.3,0.7c0,1.9,0,3.8-0.1,5.7c0,1.9-0.1,3.8-0.1,5.7c0,0.4,0.1,0.7,0.4,0.8c0.2,0.1,0.4,0.2,0.6,0.2
			c0.7,0,1.2,0,1.5,0c0.3,0,0.4,0.1,0.4,0.3c0,0.1-0.1,0.2-0.2,0.3c-0.1,0.1-0.3,0.1-0.6,0.2c-1.3,0.2-2.4,0.4-3.1,0.5
			c-0.8,0.1-1.2,0.2-1.4,0.2c-0.1,0-0.2-0.1-0.3-0.2c0-0.1,0-0.3,0-0.4v-0.9c0-0.3-0.1-0.5-0.3-0.5c-0.2,0-0.4,0.1-0.6,0.3
			c-0.3,0.2-0.6,0.5-1.1,0.8c-0.4,0.3-1,0.6-1.5,0.8C121,40.6,120.4,40.7,119.6,40.7"/>
		<path class="st5" d="M133.9,18.5c0-0.5-0.1-0.9-0.3-1.1c-0.2-0.2-0.4-0.4-0.6-0.5c-0.2-0.1-0.5-0.2-0.6-0.2
			c-0.2-0.1-0.3-0.2-0.3-0.3c0-0.1,0.1-0.2,0.2-0.3c0.1-0.1,0.3-0.1,0.6-0.2l2.6-1c0.1,0,0.2-0.1,0.3-0.1c0.1,0,0.2,0,0.3,0
			c0.1,0,0.2,0,0.3,0.1c0.1,0.1,0.1,0.3,0.1,0.5V31c0,0.4,0.1,0.6,0.3,0.6c0.1,0,0.2-0.1,0.6-0.2c0.3-0.2,0.7-0.4,1.2-0.6
			c0.5-0.3,0.9-0.6,1.5-0.9c0.5-0.3,1-0.6,1.4-0.9c0.4-0.3,0.8-0.6,1.1-0.8c0.3-0.2,0.4-0.4,0.4-0.5c0-0.3-0.1-0.4-0.2-0.6
			c-0.2-0.1-0.3-0.3-0.5-0.3c-0.2-0.1-0.3-0.2-0.5-0.3c-0.2-0.1-0.2-0.2-0.2-0.4c0-0.1,0.1-0.2,0.2-0.3c0.1-0.1,0.2-0.1,0.4-0.1
			c0.4,0,0.9,0,1.4,0c0.5,0,1,0,1.5,0c0.5,0,1,0,1.5,0c0.5,0,1,0,1.3,0c0.2,0,0.3,0,0.5,0.1c0.2,0.1,0.2,0.2,0.2,0.4
			c0,0.1-0.1,0.2-0.2,0.3c-0.1,0.1-0.3,0.2-0.5,0.2c-0.2,0.1-0.4,0.1-0.6,0.2c-0.2,0.1-0.4,0.1-0.5,0.2c-0.3,0.1-0.8,0.4-1.6,0.8
			c-0.8,0.4-1.6,0.9-2.5,1.4c-0.8,0.5-1.6,1-2.2,1.4c-0.7,0.4-1,0.7-1,0.8c0,0.1,0,0.2,0.1,0.3c0.1,0.1,0.1,0.2,0.2,0.2l6.5,5.9
			c0.4,0.4,0.7,0.6,1.1,0.8c0.4,0.2,0.7,0.3,1,0.4c0.3,0.1,0.5,0.2,0.7,0.3c0.2,0.1,0.2,0.2,0.2,0.3c0,0.3-0.3,0.4-1,0.4
			c-0.4,0-0.8,0-1.3-0.1c-0.5,0-1-0.1-1.6-0.1c-0.5,0-1,0-1.4,0.1c-0.5,0-0.9,0.1-1.4,0.1c-0.4,0-0.7,0-0.9-0.1
			c-0.2,0-0.3-0.1-0.3-0.3c0-0.2,0.1-0.3,0.3-0.4c0.2-0.1,0.5-0.1,0.8-0.2c0.2,0,0.4-0.1,0.5-0.2c0.1-0.1,0.2-0.2,0.2-0.3
			c0-0.1-0.1-0.3-0.4-0.6l-5.7-5.4c-0.2-0.2-0.3-0.2-0.3-0.2c-0.2,0-0.3,0.1-0.3,0.2V38c0,0.4,0.1,0.7,0.3,0.9
			c0.2,0.2,0.4,0.3,0.5,0.3c0.3,0.1,0.6,0.2,0.8,0.2c0.2,0,0.3,0.1,0.3,0.3c0,0.2-0.1,0.3-0.3,0.3c-0.2,0-0.4,0.1-0.6,0.1
			c-0.5,0-0.9,0-1.3-0.1c-0.4,0-0.8-0.1-1.3-0.1c-0.5,0-0.9,0-1.5,0.1c-0.5,0-0.9,0.1-1.3,0.1c-0.1,0-0.3,0-0.5-0.1
			c-0.2,0-0.4-0.1-0.4-0.3c0-0.2,0.1-0.3,0.2-0.4c0.1-0.1,0.3-0.1,0.5-0.2c0.3-0.1,0.5-0.1,0.7-0.2c0.2-0.1,0.4-0.1,0.6-0.2
			c0.2-0.1,0.3-0.3,0.4-0.5c0.1-0.2,0.1-0.5,0.1-0.9V18.5"/>
		<path class="st5" d="M151.7,31.2c0,0.1-0.1,0.3-0.1,0.5c0,0.2,0,0.5,0,0.8c0,0.8,0.1,1.6,0.2,2.3c0.1,0.8,0.4,1.4,0.8,2
			c0.4,0.6,0.9,1.1,1.7,1.4c0.7,0.4,1.7,0.5,2.8,0.5c0.7,0,1.3-0.1,1.7-0.2c0.4-0.2,0.7-0.3,0.9-0.5c0.2-0.2,0.4-0.4,0.5-0.5
			c0.1-0.2,0.3-0.2,0.4-0.2c0.2,0,0.3,0.1,0.3,0.3c0,0.1-0.1,0.3-0.3,0.6c-0.2,0.3-0.5,0.7-1,1c-0.5,0.4-1,0.7-1.7,1
			c-0.7,0.3-1.5,0.4-2.5,0.4c-2.1,0-3.7-0.7-4.8-2.1c-1.1-1.4-1.7-3.2-1.7-5.6c0-0.9,0.1-1.8,0.4-2.7c0.3-0.9,0.7-1.8,1.3-2.6
			c0.6-0.8,1.3-1.4,2.1-1.9c0.9-0.5,1.9-0.8,3.1-0.8c1.1,0,2,0.2,2.7,0.6c0.7,0.4,1.3,0.9,1.8,1.5c0.5,0.6,0.8,1.2,1,1.8
			c0.2,0.6,0.3,1.1,0.3,1.5c0,0.4,0,0.6-0.1,0.7c-0.1,0.1-0.3,0.2-0.6,0.2H151.7 M155.3,30.1c0.8,0,1.5,0,2-0.1
			c0.5-0.1,0.9-0.2,1.2-0.3c0.3-0.2,0.5-0.3,0.5-0.6c0.1-0.2,0.1-0.5,0.1-0.9c0-0.7-0.3-1.2-0.8-1.6c-0.5-0.4-1.2-0.7-2-0.7
			c-0.7,0-1.3,0.1-1.8,0.4c-0.5,0.3-1,0.6-1.4,1c-0.4,0.4-0.6,0.8-0.8,1.2c-0.2,0.4-0.3,0.8-0.3,1.1c0,0.1,0,0.1,0.1,0.2
			c0,0,0.2,0.1,0.4,0.1c0.2,0,0.5,0,1,0.1C153.9,30.1,154.5,30.1,155.3,30.1z"/>
	</g>
</g>
<g>
	<path class="st5" d="M39.7,55.7H17.9v11.7c0,2.3,1.8,4.1,4.1,4.1h23.4c0-3.5,0-9.4,0-10.3C45.3,58.1,43.1,56,39.7,55.7z M63.8,55.7
		c-0.6,2.8-1.9,4.2-3.6,4.7c-2.2,0.7-3.4,1.8-4.1,2.7c-1.3,1.9-1.6,2.7-4.1,3c-0.8,0.1-3,0.1-3,0.1v5.3h18.8c2.3,0,4.1-1.8,4.1-4.1
		V55.8L63.8,55.7L63.8,55.7z"/>
	<g>
		<path class="st5" d="M14.1,69.2v0.4h-0.6v1.8h-0.4v-1.8h-0.6v-0.4H14.1z M16.4,71.3l-0.1-1.2c0-0.2,0-0.4,0-0.6l0,0
			c-0.1,0.2-0.1,0.4-0.2,0.6l-0.4,1.2h-0.4l-0.4-1.2C15,69.9,15,69.7,15,69.5l0,0c0,0.2,0,0.4,0,0.6l-0.1,1.2h-0.4l0.2-2.1h0.6
			l0.4,1c0.1,0.2,0.1,0.3,0.1,0.5l0,0c0.1-0.2,0.1-0.4,0.1-0.5l0.4-1.1h0.6l0.2,2.1H16.4z"/>
	</g>
	<path class="st5" d="M69.5,31.5c-6.7-2.9-15.2-5.2-24.6-5.2c-9.3,0-17.8,2.3-24.6,5.2c-1.5,0.8-2.4,1.8-2.5,3.4v17.5h9.6
		c-0.8-1.2-1.2-2.5-1.3-3.9c-0.1-7.4,5.1-13,17.7-13.7c12.5-0.7,20.2,8,20.3,17.5H72V34.9C71.9,33.3,70.9,32.2,69.5,31.5z"/>
</g>
<text transform="matrix(1 0 0 1 86.6541 64.4501)"><tspan x="0" y="0" class="st5 st6 st7">Institute</tspan><tspan x="58.1" y="0" class="st5 st8 st7 st9"> </tspan><tspan x="63.2" y="-1.3" class="st5 st10 st11">for</tspan><tspan x="76.1" y="-1.3" class="st5 st8 st11"> </tspan><tspan x="0" y="16.5" class="st5 st6 st7">Brain Sciences</tspan></text>
</svg>
