<?xml version="1.0" encoding="utf-8"?>
<!-- Generator: Adobe Illustrator 22.0.1, SVG Export Plug-In . SVG Version: 6.00 Build 0)  -->
<svg version="1.1" id="Layer_1" xmlns="http://www.w3.org/2000/svg" xmlns:xlink="http://www.w3.org/1999/xlink" x="0px" y="0px"
	 viewBox="0 0 260.7 51.8" style="enable-background:new 0 0 260.7 51.8;" xml:space="preserve">
<style type="text/css">
	.st0{fill:#666667;}
	.st1{fill:#001A57;}
	.st2{fill:#262626;}
	.st3{fill:#0272A3;}
	.st4{fill:#14477E;}
	.st5{fill:#FFFFFF;}
	.st6{font-family:'OpenSans-SemiBold';}
	.st7{font-size:13.8241px;}
	.st8{letter-spacing:1;}
	.st9{font-family:'OpenSans-Italic';}
	.st10{font-size:9.9011px;}
</style>
<text transform="matrix(1 0 0 1 154.0387 23.2302)"><tspan x="0" y="0" class="st5 st6 st7">Institute</tspan><tspan x="56.6" y="0" class="st5 st6 st7 st8"> </tspan><tspan x="61.6" y="-1.3" class="st5 st9 st10">for </tspan><tspan x="0" y="16.1" class="st5 st6 st7">Brain Sciences</tspan></text>
<g>
	<g>
		<path class="st5" d="M18.3,39.7c-0.6,0-1.3,0-2.1,0.1c-0.7,0.1-1.4,0.1-1.9,0.1c-0.1,0-0.3,0-0.5,0c-0.2,0-0.3-0.2-0.3-0.4
			c0-0.2,0.1-0.4,0.3-0.5c0.2-0.2,0.6-0.3,1.3-0.4c0.2,0,0.5-0.1,0.7-0.2c0.2-0.1,0.4-0.2,0.6-0.4c0.2-0.2,0.3-0.5,0.5-0.8
			c0.1-0.3,0.2-0.8,0.2-1.5V15c0-0.2-0.1-0.4-0.3-0.5c-0.2-0.1-0.5-0.2-0.8-0.2c-0.3,0-0.6-0.1-1-0.1c-0.3,0-0.6,0-0.9-0.1
			c-0.5-0.1-0.8-0.1-1-0.2c-0.2,0-0.3-0.2-0.3-0.4c0-0.2,0.1-0.3,0.2-0.4c0.1-0.1,0.3-0.2,0.5-0.2c0.2,0,0.4-0.1,0.5-0.1
			c0.2,0,0.4,0,0.5,0h4c1.1,0,2.2,0,3.3-0.1c1.1-0.1,2.3-0.1,3.7-0.1c2.3,0,4.5,0.3,6.5,0.9c2,0.6,3.8,1.5,5.3,2.7
			c1.5,1.2,2.7,2.8,3.6,4.7c0.9,1.9,1.3,4.2,1.3,6.8c0,1.6-0.4,3.2-1.1,4.6c-0.7,1.5-1.7,2.7-2.9,3.8c-1.2,1.1-2.7,1.9-4.3,2.6
			c-1.6,0.6-3.4,0.9-5.3,0.9H18.3 M20.9,34.2c0,0.8,0.2,1.4,0.5,2c0.3,0.6,0.7,1,1.3,1.4c0.5,0.4,1.1,0.6,1.8,0.8
			c0.7,0.2,1.4,0.3,2.1,0.3c0.6,0,1.3-0.1,2.1-0.3c0.8-0.2,1.6-0.4,2.5-0.8c0.8-0.4,1.7-0.9,2.5-1.5c0.8-0.6,1.6-1.3,2.3-2.2
			c0.7-0.9,1.2-1.9,1.6-3c0.4-1.2,0.6-2.5,0.6-4c0-1.5-0.2-2.8-0.6-4.1c-0.4-1.2-1-2.3-1.7-3.3c-0.7-1-1.5-1.8-2.4-2.5
			c-0.9-0.7-1.9-1.3-2.9-1.7c-1-0.5-2-0.8-3-1c-1-0.2-2-0.3-2.9-0.3c-0.9,0-1.6,0-2.1,0.1c-0.5,0.1-0.9,0.2-1.1,0.3
			c-0.2,0.1-0.4,0.3-0.4,0.5c0,0.2-0.1,0.3-0.1,0.5V34.2z"/>
		<path class="st5" d="M51.1,40.5c-1,0-1.9-0.1-2.6-0.4c-0.7-0.3-1.2-0.7-1.6-1.3c-0.4-0.6-0.7-1.2-0.8-2c-0.2-0.8-0.2-1.6-0.2-2.5
			c0-0.7,0-1.4,0-2.2c0-0.8,0-1.6,0-2.5c0-0.8,0-1.7,0-2.5c0-0.8,0-1.5,0-2.2c0-0.3-0.1-0.5-0.4-0.6c-0.3-0.1-0.6-0.2-0.8-0.2
			c-0.5-0.1-0.9-0.3-1-0.3c-0.2-0.1-0.3-0.2-0.3-0.3c0-0.2,0.1-0.3,0.3-0.4c0.2,0,0.5,0,0.8,0c0.3,0,0.6,0,0.9,0c0.3,0,0.6,0,0.9,0
			c0.3,0,0.6,0,1,0c0.3,0,0.6,0,1,0c0.3,0,0.5,0.1,0.6,0.2c0.1,0.1,0.1,0.3,0.1,0.7c0,2,0,3.9,0,5.8c0,1.9,0,3.9,0,5.8
			c0,0.9,0.3,1.6,0.9,2.1c0.6,0.5,1.5,0.7,2.5,0.7c1.2,0,2.2-0.1,2.9-0.3c0.7-0.2,1.2-0.5,1.5-0.9c0.3-0.4,0.6-0.8,0.7-1.2
			c0.1-0.5,0.2-0.9,0.2-1.4c0-1.6,0-3.1,0-4.7c0-1.5,0-3.1,0-4.7c0-0.1,0-0.2-0.1-0.3c0-0.1-0.1-0.2-0.3-0.2
			c-0.2-0.1-0.4-0.1-0.7-0.2c-0.3-0.1-0.7-0.2-1.2-0.3c-0.2-0.1-0.4-0.1-0.8-0.3c-0.3-0.1-0.5-0.3-0.5-0.4c0-0.1,0.1-0.2,0.3-0.3
			c0.2,0,0.4-0.1,0.7-0.1c0.4,0,0.7,0,1.1,0c0.4,0,0.7,0,1.1,0c0.4,0,0.9,0,1.3,0c0.4,0,0.9,0,1.3,0c0.1,0,0.3,0.1,0.6,0.2
			c0.2,0.1,0.4,0.4,0.4,0.8c0,2.2,0,4.4-0.1,6.6c-0.1,2.2-0.1,4.4-0.1,6.6c0,0.5,0.1,0.8,0.4,0.9c0.3,0.1,0.5,0.2,0.7,0.2
			c0.8,0,1.4,0,1.8,0c0.3,0,0.5,0.2,0.5,0.4c0,0.2-0.1,0.3-0.2,0.3c-0.1,0.1-0.4,0.1-0.7,0.2c-1.5,0.2-2.8,0.4-3.6,0.6
			c-0.9,0.2-1.4,0.3-1.6,0.3c-0.2,0-0.3-0.1-0.3-0.2c0-0.1,0-0.3,0-0.5v-1c0-0.3-0.1-0.5-0.3-0.5c-0.2,0-0.4,0.1-0.7,0.4
			c-0.3,0.3-0.7,0.6-1.2,0.9c-0.5,0.3-1.1,0.6-1.8,0.9C52.7,40.3,51.9,40.5,51.1,40.5"/>
		<path class="st5" d="M67.6,14.8c0-0.6-0.1-1-0.3-1.2c-0.2-0.2-0.5-0.4-0.7-0.5c-0.3-0.1-0.5-0.2-0.7-0.2c-0.2-0.1-0.3-0.2-0.3-0.4
			c0-0.1,0.1-0.3,0.2-0.3c0.1-0.1,0.4-0.2,0.7-0.3l3-1.1c0.1-0.1,0.2-0.1,0.4-0.1c0.1,0,0.2,0,0.4,0c0.1,0,0.2,0.1,0.3,0.2
			c0.1,0.1,0.2,0.3,0.2,0.6v18c0,0.5,0.1,0.7,0.4,0.7c0.1,0,0.3-0.1,0.7-0.3c0.4-0.2,0.9-0.4,1.4-0.7c0.5-0.3,1.1-0.6,1.7-1
			c0.6-0.4,1.1-0.7,1.6-1.1c0.5-0.3,0.9-0.7,1.2-0.9c0.3-0.3,0.5-0.5,0.5-0.6c0-0.3-0.1-0.5-0.3-0.7c-0.2-0.2-0.4-0.3-0.6-0.4
			c-0.2-0.1-0.4-0.2-0.6-0.3c-0.2-0.1-0.3-0.2-0.3-0.4c0-0.1,0.1-0.2,0.2-0.3c0.1-0.1,0.3-0.1,0.4-0.1c0.5,0,1,0,1.6,0
			c0.6,0,1.2,0,1.8,0c0.6,0,1.1,0,1.7,0c0.6,0,1.1,0,1.6,0c0.2,0,0.4,0,0.6,0.1c0.2,0.1,0.3,0.2,0.3,0.4c0,0.1-0.1,0.2-0.2,0.3
			c-0.2,0.1-0.4,0.2-0.6,0.3c-0.2,0.1-0.5,0.2-0.7,0.2c-0.2,0.1-0.4,0.1-0.6,0.2c-0.3,0.1-0.9,0.5-1.9,1c-0.9,0.5-1.9,1.1-2.8,1.6
			c-1,0.6-1.8,1.1-2.6,1.6c-0.8,0.5-1.1,0.8-1.1,0.9c0,0.1,0,0.3,0.1,0.4c0.1,0.1,0.2,0.2,0.2,0.2l7.6,6.9c0.4,0.4,0.9,0.7,1.3,0.9
			c0.4,0.2,0.8,0.4,1.1,0.5c0.3,0.1,0.6,0.2,0.8,0.3c0.2,0.1,0.3,0.2,0.3,0.3c0,0.3-0.4,0.4-1.1,0.4c-0.5,0-1,0-1.5-0.1
			c-0.6-0.1-1.2-0.1-1.8-0.1c-0.6,0-1.1,0-1.7,0.1c-0.5,0.1-1,0.1-1.6,0.1c-0.5,0-0.8,0-1-0.1c-0.2,0-0.3-0.2-0.3-0.4
			c0-0.2,0.1-0.3,0.3-0.4c0.2-0.1,0.5-0.1,0.9-0.2c0.2,0,0.4-0.1,0.6-0.2c0.2-0.1,0.2-0.2,0.2-0.4c0-0.1-0.2-0.4-0.5-0.7l-6.6-6.2
			C71.1,31.1,71,31,70.9,31c-0.2,0-0.3,0.1-0.3,0.2v6.2c0,0.5,0.1,0.8,0.3,1c0.2,0.2,0.4,0.3,0.6,0.4c0.3,0.1,0.6,0.2,0.9,0.2
			c0.2,0,0.4,0.2,0.4,0.4c0,0.2-0.1,0.3-0.3,0.3c-0.2,0.1-0.4,0.1-0.7,0.1c-0.5,0-1,0-1.5-0.1c-0.5-0.1-1-0.1-1.4-0.1
			c-0.5,0-1.1,0-1.7,0.1c-0.6,0.1-1.1,0.1-1.5,0.1c-0.1,0-0.4,0-0.6-0.1c-0.3,0-0.4-0.2-0.4-0.4c0-0.2,0.1-0.3,0.2-0.4
			c0.1-0.1,0.3-0.1,0.6-0.2c0.3-0.1,0.6-0.2,0.8-0.2c0.3-0.1,0.5-0.1,0.7-0.3c0.2-0.1,0.4-0.3,0.5-0.5c0.1-0.2,0.2-0.6,0.2-1V14.8"
			/>
		<path class="st5" d="M88.2,29.5c-0.1,0.1-0.1,0.4-0.1,0.6c0,0.3,0,0.6,0,0.9c0,0.9,0.1,1.8,0.2,2.7c0.2,0.9,0.5,1.7,0.9,2.3
			c0.5,0.7,1.1,1.2,1.9,1.6c0.8,0.4,1.9,0.6,3.3,0.6c0.8,0,1.5-0.1,2-0.3c0.5-0.2,0.8-0.4,1.1-0.6c0.3-0.2,0.5-0.4,0.6-0.6
			c0.1-0.2,0.3-0.3,0.5-0.3c0.3,0,0.4,0.1,0.4,0.3c0,0.1-0.1,0.3-0.4,0.7c-0.2,0.4-0.6,0.8-1.1,1.2c-0.5,0.4-1.2,0.8-2,1.1
			c-0.8,0.3-1.8,0.5-2.9,0.5c-2.4,0-4.3-0.8-5.6-2.4c-1.3-1.6-2-3.8-2-6.5c0-1,0.2-2.1,0.5-3.2c0.3-1.1,0.8-2.1,1.5-3
			c0.7-0.9,1.5-1.6,2.5-2.2c1-0.6,2.2-0.9,3.5-0.9c1.3,0,2.3,0.2,3.2,0.7c0.9,0.5,1.6,1,2.1,1.7c0.5,0.7,0.9,1.3,1.1,2
			c0.2,0.7,0.4,1.3,0.4,1.7c0,0.4-0.1,0.7-0.2,0.8c-0.1,0.1-0.3,0.2-0.7,0.2H88.2 M92.4,28.2c1,0,1.7,0,2.3-0.1
			c0.6-0.1,1-0.2,1.4-0.4c0.3-0.2,0.5-0.4,0.6-0.7c0.1-0.3,0.2-0.6,0.2-1c0-0.8-0.3-1.4-0.9-1.9c-0.6-0.5-1.4-0.8-2.3-0.8
			c-0.8,0-1.5,0.2-2.1,0.5c-0.6,0.3-1.2,0.7-1.6,1.2c-0.4,0.5-0.8,0.9-1,1.4c-0.2,0.5-0.4,0.9-0.4,1.3c0,0.1,0,0.2,0.1,0.2
			c0,0,0.2,0.1,0.4,0.1c0.2,0,0.6,0.1,1.1,0.1C90.7,28.2,91.5,28.2,92.4,28.2z"/>
	</g>
</g>
<g>
	<path class="st5" d="M126.4,30.2h-13.8v7.4c0,1.4,1.1,2.6,2.6,2.6H130c0-2.2,0-5.9,0-6.5C129.9,31.7,128.5,30.4,126.4,30.2z
		 M141.6,30.2c-0.4,1.8-1.2,2.7-2.2,3c-1.4,0.4-2.2,1.1-2.6,1.7c-0.8,1.2-1,1.7-2.6,1.9c-0.5,0.1-1.9,0-1.9,0v3.3h11.8
		c1.4,0,2.6-1.1,2.6-2.6v-7.4L141.6,30.2L141.6,30.2z"/>
	<g>
		<path class="st5" d="M110.3,38.7v0.2h-0.4V40h-0.3v-1.1h-0.4v-0.2H110.3z M111.7,40l0-0.8c0-0.1,0-0.2,0-0.4l0,0
			c0,0.1-0.1,0.3-0.1,0.4l-0.2,0.7h-0.3l-0.2-0.7c0-0.1-0.1-0.3-0.1-0.4l0,0c0,0.1,0,0.3,0,0.4l0,0.8h-0.3l0.1-1.3h0.4l0.2,0.6
			c0,0.1,0,0.2,0.1,0.3l0,0c0-0.1,0.1-0.2,0.1-0.3l0.2-0.7h0.4l0.1,1.3H111.7z"/>
	</g>
	<path class="st5" d="M145.1,14.9c-4.2-1.8-9.6-3.3-15.5-3.3c-5.9,0-11.2,1.5-15.5,3.3c-0.9,0.5-1.5,1.1-1.6,2.1v11h6
		c-0.5-0.7-0.8-1.6-0.8-2.4C117.7,21,121,17.5,129,17c7.9-0.4,12.8,5,12.8,11.1h5v-11C146.7,16.1,146.1,15.4,145.1,14.9z"/>
</g>
</svg>
